<svg xmlns="http://www.w3.org/2000/svg" height="128.45600433349608" width="162.323193359375">
  <g transform="matrix(1.5976331360946747,0,0,1.5976331360946747,1.6183431952662701,-42.35325480353903)" fill="#2e91ce">
    <path xmlns="http://www.w3.org/2000/svg" d="M70.211,68.149C68.899,58.162,60.338,50.425,50,50.425c-10.342,0-18.903,7.737-20.215,17.724H7.75v5.341h84.5v-5.341H70.211  z M50,55.766c2.899,0,5.607,0.826,7.906,2.252c-0.243,3.376-6.026,8.754-10.711,10.131H35.183  C36.446,61.118,42.611,55.766,50,55.766z M19.706,56.412l-9.414-5.435l2.67-4.625l9.414,5.435L19.706,56.412z M30.967,43.196  l-5.435-9.414l4.626-2.67l5.435,9.414L30.967,43.196z M52.67,37.381h-5.341V26.51h5.341V37.381z M69.031,43.196l-4.626-2.67  l5.435-9.414l4.626,2.67L69.031,43.196z M80.293,56.412l-2.67-4.625l9.414-5.435l2.67,4.625L80.293,56.412z" />
  </g>
  <g transform="matrix(1.6,0,0,1.6,-2.2399993896484376,96.45600128173828)" fill="#363636">
    <path d="M14.22 12.7 l-1.22 1.08 l0 6.2 l-2.14 0 l0 -6.2 l-6.1 0 l0 6.2 l-2.14 0 l0 -6.2 l-1.22 -1.08 l1.22 -1.06 l0 -6.3 l2.14 0 l0 6.3 l6.1 0 l0 -6.3 l2.14 0 l0 6.3 z M31.352 12.719999999999999 l-1.22 1.06 l0 3.78 l-2.74 2.44 l-5.2 0 l-2.76 -2.44 l0 -3.78 l-1.22 -1.06 l1.22 -1.08 l0 -3.86 l2.76 -2.44 l5.2 0 l2.74 2.44 l0 3.86 z M27.992 16.56 l0 -7.76 l-1.52 -1.32 l-3.36 0 l-1.52 1.32 l0 7.76 l1.52 1.3 l3.36 0 z M46.304 20 l-2.32 0 l-3.06 -6.2 l-2.62 0 l0 6.2 l-2.14 0 l0 -6.2 l-1.22 -1.08 l1.22 -1.06 l0 -6.32 l7.08 0 l2.38 2.76 l0 2.94 l-2.38 2.76 z M43.484 10.12 l0 -1.12 l-1.26 -1.5 l-3.92 0 l0 4.16 l3.92 0 z M55.07599999999999 12.719999999999999 l-1.22 1.08 l0 6.2 l-2.14 0 l0 -6.2 l-1.22 -1.08 l1.22 -1.06 l0 -6.32 l2.14 0 l0 6.32 z M69.608 20 l-10.38 0 l0 -2.14 l7.7 -10.38 l-7.7 0 l0 -2.14 l10.38 0 l0 2.14 l-7.64 10.38 l7.64 0 l0 2.14 z M86.3 12.719999999999999 l-1.22 1.06 l0 3.78 l-2.74 2.44 l-5.2 0 l-2.76 -2.44 l0 -3.78 l-1.22 -1.06 l1.22 -1.08 l0 -3.86 l2.76 -2.44 l5.2 0 l2.74 2.44 l0 3.86 z M82.94 16.56 l0 -7.76 l-1.52 -1.32 l-3.36 0 l-1.52 1.32 l0 7.76 l1.52 1.3 l3.36 0 z M102.852 12.719999999999999 l-1.22 1.06 l0 6.22 l-2.14 0 l-6.12 -10.86 l0 10.86 l-2.14 0 l0 -6.22 l-1.22 -1.06 l1.22 -1.08 l0 -6.3 l2.26 0 l6 10.56 l0 -10.56 l2.14 0 l0 6.3 z" />
  </g>
</svg>
